<mxfile host="app.diagrams.net" modified="2023-06-03T01:06:54.087Z" agent="Mozilla/5.0 (Windows NT 10.0; Win64; x64) AppleWebKit/537.36 (KHTML, like Gecko) Chrome/113.0.0.0 Safari/537.36" etag="uUGftTszu4iKhpVEUHcr" version="21.3.7" type="github">
  <diagram id="kgpKYQtTHZ0yAKxKKP6v" name="Page-1">
    <mxGraphModel dx="1434" dy="764" grid="1" gridSize="10" guides="1" tooltips="1" connect="1" arrows="1" fold="1" page="1" pageScale="1" pageWidth="850" pageHeight="1100" math="0" shadow="0">
      <root>
        <mxCell id="0" />
        <mxCell id="1" parent="0" />
        <mxCell id="xW6dC_726F_BnDqgVRCd-8" value="" style="whiteSpace=wrap;html=1;aspect=fixed;" vertex="1" parent="1">
          <mxGeometry x="290" y="160" width="340" height="340" as="geometry" />
        </mxCell>
        <mxCell id="xW6dC_726F_BnDqgVRCd-3" value="CLIENT" style="rounded=1;whiteSpace=wrap;html=1;" vertex="1" parent="1">
          <mxGeometry x="20" y="140" width="80" height="370" as="geometry" />
        </mxCell>
        <mxCell id="xW6dC_726F_BnDqgVRCd-4" value="COMMAND" style="shape=singleArrow;whiteSpace=wrap;html=1;" vertex="1" parent="1">
          <mxGeometry x="100" y="160" width="110" height="100" as="geometry" />
        </mxCell>
        <mxCell id="xW6dC_726F_BnDqgVRCd-5" value="QUERY" style="shape=singleArrow;whiteSpace=wrap;html=1;" vertex="1" parent="1">
          <mxGeometry x="100" y="400" width="120" height="100" as="geometry" />
        </mxCell>
        <mxCell id="xW6dC_726F_BnDqgVRCd-30" style="edgeStyle=orthogonalEdgeStyle;rounded=0;orthogonalLoop=1;jettySize=auto;html=1;" edge="1" parent="1" source="xW6dC_726F_BnDqgVRCd-6" target="xW6dC_726F_BnDqgVRCd-26">
          <mxGeometry relative="1" as="geometry" />
        </mxCell>
        <mxCell id="xW6dC_726F_BnDqgVRCd-6" value="WRITE API" style="rounded=0;whiteSpace=wrap;html=1;" vertex="1" parent="1">
          <mxGeometry x="220" y="170" width="120" height="80" as="geometry" />
        </mxCell>
        <mxCell id="xW6dC_726F_BnDqgVRCd-31" style="edgeStyle=orthogonalEdgeStyle;rounded=0;orthogonalLoop=1;jettySize=auto;html=1;entryX=0.25;entryY=1;entryDx=0;entryDy=0;" edge="1" parent="1" source="xW6dC_726F_BnDqgVRCd-7" target="xW6dC_726F_BnDqgVRCd-26">
          <mxGeometry relative="1" as="geometry">
            <Array as="points">
              <mxPoint x="420" y="430" />
              <mxPoint x="420" y="360" />
            </Array>
          </mxGeometry>
        </mxCell>
        <mxCell id="xW6dC_726F_BnDqgVRCd-7" value="READ API" style="rounded=0;whiteSpace=wrap;html=1;" vertex="1" parent="1">
          <mxGeometry x="220" y="410" width="120" height="80" as="geometry" />
        </mxCell>
        <mxCell id="xW6dC_726F_BnDqgVRCd-33" style="edgeStyle=orthogonalEdgeStyle;rounded=0;orthogonalLoop=1;jettySize=auto;html=1;entryX=1;entryY=0.5;entryDx=0;entryDy=0;" edge="1" parent="1" source="xW6dC_726F_BnDqgVRCd-9" target="xW6dC_726F_BnDqgVRCd-26">
          <mxGeometry relative="1" as="geometry" />
        </mxCell>
        <mxCell id="xW6dC_726F_BnDqgVRCd-9" value="&lt;br&gt;DOMAIN MODEL" style="rounded=0;whiteSpace=wrap;html=1;" vertex="1" parent="1">
          <mxGeometry x="460" y="180" width="130" height="60" as="geometry" />
        </mxCell>
        <mxCell id="xW6dC_726F_BnDqgVRCd-32" style="edgeStyle=orthogonalEdgeStyle;rounded=0;orthogonalLoop=1;jettySize=auto;html=1;" edge="1" parent="1" source="xW6dC_726F_BnDqgVRCd-10">
          <mxGeometry relative="1" as="geometry">
            <mxPoint x="490" y="360" as="targetPoint" />
          </mxGeometry>
        </mxCell>
        <mxCell id="xW6dC_726F_BnDqgVRCd-10" value="WRITE API" style="rounded=0;whiteSpace=wrap;html=1;" vertex="1" parent="1">
          <mxGeometry x="420" y="440" width="170" height="40" as="geometry" />
        </mxCell>
        <mxCell id="xW6dC_726F_BnDqgVRCd-11" value="COMMAND" style="shape=singleArrow;whiteSpace=wrap;html=1;" vertex="1" parent="1">
          <mxGeometry x="630" y="160" width="110" height="100" as="geometry" />
        </mxCell>
        <mxCell id="xW6dC_726F_BnDqgVRCd-12" value="QUERY" style="shape=singleArrow;whiteSpace=wrap;html=1;rotation=-180;" vertex="1" parent="1">
          <mxGeometry x="640" y="390" width="100" height="100" as="geometry" />
        </mxCell>
        <mxCell id="xW6dC_726F_BnDqgVRCd-13" value="RELATIONAL" style="shape=cylinder3;whiteSpace=wrap;html=1;boundedLbl=1;backgroundOutline=1;size=15;" vertex="1" parent="1">
          <mxGeometry x="750" y="170" width="60" height="100" as="geometry" />
        </mxCell>
        <mxCell id="xW6dC_726F_BnDqgVRCd-15" value="NON RELATIONAL" style="shape=cylinder3;whiteSpace=wrap;html=1;boundedLbl=1;backgroundOutline=1;size=15;" vertex="1" parent="1">
          <mxGeometry x="750" y="410" width="60" height="60" as="geometry" />
        </mxCell>
        <mxCell id="xW6dC_726F_BnDqgVRCd-16" value="SYNC" style="shape=singleArrow;whiteSpace=wrap;html=1;rotation=105;" vertex="1" parent="1">
          <mxGeometry x="750" y="280" width="90" height="100" as="geometry" />
        </mxCell>
        <mxCell id="xW6dC_726F_BnDqgVRCd-28" style="edgeStyle=orthogonalEdgeStyle;rounded=0;orthogonalLoop=1;jettySize=auto;html=1;exitX=1;exitY=0.5;exitDx=0;exitDy=0;entryX=0.523;entryY=1.117;entryDx=0;entryDy=0;entryPerimeter=0;" edge="1" parent="1" source="xW6dC_726F_BnDqgVRCd-26" target="xW6dC_726F_BnDqgVRCd-9">
          <mxGeometry relative="1" as="geometry" />
        </mxCell>
        <mxCell id="xW6dC_726F_BnDqgVRCd-29" style="edgeStyle=orthogonalEdgeStyle;rounded=0;orthogonalLoop=1;jettySize=auto;html=1;" edge="1" parent="1" source="xW6dC_726F_BnDqgVRCd-26" target="xW6dC_726F_BnDqgVRCd-10">
          <mxGeometry relative="1" as="geometry">
            <Array as="points">
              <mxPoint x="520" y="350" />
              <mxPoint x="520" y="395" />
              <mxPoint x="525" y="395" />
            </Array>
          </mxGeometry>
        </mxCell>
        <mxCell id="xW6dC_726F_BnDqgVRCd-26" value="&lt;br&gt;REPOSITORY" style="rounded=0;whiteSpace=wrap;html=1;" vertex="1" parent="1">
          <mxGeometry x="360" y="295" width="130" height="65" as="geometry" />
        </mxCell>
      </root>
    </mxGraphModel>
  </diagram>
</mxfile>
